# xmcd CD database file
#
# Track frame offsets:
#	150
#	24455
#	45675
#	67490
#	83320
#	105725
#	125712
#	147060
#	179960
#	204190
#	222582
#	248985
#	269610
#	294455
#	316322
#	330932
#
# Disc length: 4562 seconds
#
# Revision: 17
# Processed by: cddbd v1.5.2PL0 Copyright (c) Steve Scherf et al.
# Submitted via: CDex 2.02
#
DISCID=f911d010
DTITLE=Zucchero - Greatest Hits
DYEAR=1996
DGENRE=Blues
TTITLE0=Menta e Rosmarino
TTITLE1=Eppure non t'amo
TTITLE2=Niente da perdere
TTITLE3=Donne
TTITLE4=Rispetto
TTITLE5=Senza una donna
TTITLE6=Con le mani
TTITLE7=Madre dolcissima
TTITLE8=Overdose (d'amore)
TTITLE9=Diavolo in me
TTITLE10=Diamante
TTITLE11=A wonderful world
TTITLE12=Il volo
TTITLE13=Cosi celeste
TTITLE14=Per colpa di chi
TTITLE15=Hai scelto me
EXTD=YEAR: 1996
EXTT0=
EXTT1=
EXTT2=
EXTT3=
EXTT4=
EXTT5=
EXTT6=
EXTT7=
EXTT8=
EXTT9=
EXTT10=
EXTT11=
EXTT12=
EXTT13=
EXTT14=
EXTT15=
PLAYORDER=
